<svg width="400" height="300" viewBox="0 0 400 300" fill="none" xmlns="http://www.w3.org/2000/svg">
  <!-- Background -->
  <rect width="400" height="300" fill="#F8FAFC"/>
  
  <!-- Room Layout -->
  <rect x="20" y="20" width="360" height="260" rx="8" fill="white" stroke="#E2E8F0" stroke-width="2"/>
  
  <!-- Floor -->
  <rect x="30" y="200" width="340" height="70" fill="#F1F5F9"/>
  
  <!-- Walls -->
  <rect x="30" y="30" width="340" height="170" fill="#FEFEFE"/>
  
  <!-- Window -->
  <rect x="50" y="30" width="100" height="60" rx="4" fill="#E0F2FE" stroke="#0EA5E9"/>
  <line x1="100" y1="30" x2="100" y2="90" stroke="#0EA5E9" stroke-width="1"/>
  <line x1="50" y1="60" x2="150" y2="60" stroke="#0EA5E9" stroke-width="1"/>
  
  <!-- Bed -->
  <rect x="200" y="60" width="120" height="80" rx="6" fill="#3B82F6"/>
  <rect x="205" y="65" width="110" height="70" rx="4" fill="#60A5FA"/>
  <circle cx="210" cy="75" r="3" fill="white" opacity="0.7"/>
  <circle cx="310" cy="75" r="3" fill="white" opacity="0.7"/>
  
  <!-- Pillows -->
  <ellipse cx="225" cy="80" rx="15" ry="8" fill="#E2E8F0"/>
  <ellipse cx="295" cy="80" rx="15" ry="8" fill="#E2E8F0"/>
  
  <!-- Chair -->
  <rect x="80" y="120" width="40" height="45" rx="4" fill="#F59E0B"/>
  <rect x="85" y="100" width="30" height="25" rx="2" fill="#FBBF24"/>
  
  <!-- Table -->
  <ellipse cx="100" cy="180" rx="25" ry="15" fill="#8B5CF6"/>
  <rect x="96" y="170" width="8" height="20" fill="#7C3AED"/>
  
  <!-- Decorations -->
  <rect x="60" y="40" width="20" height="30" rx="2" fill="#10B981"/>
  <ellipse cx="70" cy="45" rx="8" ry="5" fill="#34D399"/>
  
  <!-- Lighting -->
  <circle cx="180" cy="50" r="8" fill="#FEF3C7"/>
  <circle cx="180" cy="50" r="4" fill="#F59E0B"/>
  
  <!-- Carpet -->
  <ellipse cx="180" cy="220" rx="60" ry="30" fill="#EF4444" opacity="0.3"/>
  
  <!-- Labels -->
  <text x="200" y="290" text-anchor="middle" fill="#64748B" font-family="Inter, sans-serif" font-size="12">Студийное пространство</text>
  
  <!-- Quality indicators -->
  <circle cx="350" cy="50" r="15" fill="#10B981"/>
  <path d="M345 50 L348 53 L355 46" stroke="white" stroke-width="2" fill="none"/>
  
  <circle cx="350" cy="80" r="15" fill="#10B981"/>
  <path d="M345 80 L348 83 L355 76" stroke="white" stroke-width="2" fill="none"/>
  
  <circle cx="350" cy="110" r="15" fill="#10B981"/>
  <path d="M345 110 L348 113 L355 106" stroke="white" stroke-width="2" fill="none"/>
</svg>