<svg width="400" height="300" viewBox="0 0 400 300" fill="none" xmlns="http://www.w3.org/2000/svg">
  <!-- Background -->
  <rect width="400" height="300" fill="#F8FAFC"/>
  
  <!-- Dashboard Background -->
  <rect x="20" y="20" width="360" height="260" rx="8" fill="white" stroke="#E2E8F0" stroke-width="2"/>
  
  <!-- Header -->
  <rect x="30" y="30" width="340" height="40" rx="4" fill="#1E293B"/>
  <text x="200" y="52" text-anchor="middle" fill="white" font-family="Inter, sans-serif" font-size="14" font-weight="600">Аналитика субаренды</text>
  
  <!-- Metrics Row -->
  <rect x="40" y="90" width="80" height="60" rx="4" fill="#EFF6FF" stroke="#3B82F6"/>
  <text x="80" y="105" text-anchor="middle" fill="#3B82F6" font-family="Inter, sans-serif" font-size="10">Доходы</text>
  <text x="80" y="125" text-anchor="middle" fill="#1E293B" font-family="Inter, sans-serif" font-size="16" font-weight="600">₽89,540</text>
  <text x="80" y="140" text-anchor="middle" fill="#10B981" font-family="Inter, sans-serif" font-size="10">+15.2%</text>
  
  <rect x="140" y="90" width="80" height="60" rx="4" fill="#F0FDF4" stroke="#10B981"/>
  <text x="180" y="105" text-anchor="middle" fill="#10B981" font-family="Inter, sans-serif" font-size="10">Загруженность</text>
  <text x="180" y="125" text-anchor="middle" fill="#1E293B" font-family="Inter, sans-serif" font-size="16" font-weight="600">92%</text>
  <text x="180" y="140" text-anchor="middle" fill="#10B981" font-family="Inter, sans-serif" font-size="10">+8.1%</text>
  
  <rect x="240" y="90" width="80" height="60" rx="4" fill="#FFFBEB" stroke="#F59E0B"/>
  <text x="280" y="105" text-anchor="middle" fill="#F59E0B" font-family="Inter, sans-serif" font-size="10">Расходы</text>
  <text x="280" y="125" text-anchor="middle" fill="#1E293B" font-family="Inter, sans-serif" font-size="16" font-weight="600">₽23,150</text>
  <text x="280" y="140" text-anchor="middle" fill="#EF4444" font-family="Inter, sans-serif" font-size="10">-2.3%</text>
  
  <!-- Chart Area -->
  <rect x="40" y="170" width="240" height="80" rx="4" fill="white" stroke="#E2E8F0"/>
  <text x="160" y="185" text-anchor="middle" fill="#64748B" font-family="Inter, sans-serif" font-size="10">Динамика за 30 дней</text>
  
  <!-- Chart -->
  <polyline points="50,230 70,220 90,210 110,205 130,200 150,195 170,190 190,185 210,180 230,175 250,170 270,165" 
            stroke="#3B82F6" stroke-width="2" fill="none"/>
  
  <!-- Chart Points -->
  <circle cx="50" cy="230" r="2" fill="#3B82F6"/>
  <circle cx="90" cy="210" r="2" fill="#3B82F6"/>
  <circle cx="130" cy="200" r="2" fill="#3B82F6"/>
  <circle cx="170" cy="190" r="2" fill="#3B82F6"/>
  <circle cx="210" cy="180" r="2" fill="#3B82F6"/>
  <circle cx="250" cy="170" r="2" fill="#3B82F6"/>
  <circle cx="270" cy="165" r="2" fill="#3B82F6"/>
  
  <!-- Status Indicators -->
  <rect x="300" y="170" width="70" height="80" rx="4" fill="white" stroke="#E2E8F0"/>
  <text x="335" y="185" text-anchor="middle" fill="#64748B" font-family="Inter, sans-serif" font-size="10">Статусы</text>
  
  <circle cx="315" cy="200" r="3" fill="#10B981"/>
  <text x="325" y="204" fill="#1E293B" font-family="Inter, sans-serif" font-size="8">Занято: 12</text>
  
  <circle cx="315" cy="215" r="3" fill="#F59E0B"/>
  <text x="325" y="219" fill="#1E293B" font-family="Inter, sans-serif" font-size="8">Уборка: 2</text>
  
  <circle cx="315" cy="230" r="3" fill="#EF4444"/>
  <text x="325" y="234" fill="#1E293B" font-family="Inter, sans-serif" font-size="8">Ремонт: 1</text>
  
  <!-- Profit Indicator -->
  <rect x="40" y="260" width="320" height="20" rx="4" fill="#10B981" opacity="0.1"/>
  <text x="200" y="273" text-anchor="middle" fill="#10B981" font-family="Inter, sans-serif" font-size="12" font-weight="600">Прибыль: ₽66,390 (+18.5%)</text>
</svg>