<svg width="600" height="400" viewBox="0 0 600 400" fill="none" xmlns="http://www.w3.org/2000/svg">
  <!-- Background -->
  <rect width="600" height="400" fill="#F8FAFC"/>
  
  <!-- Browser Window Frame -->
  <rect x="20" y="20" width="560" height="360" rx="8" fill="white" stroke="#E2E8F0" stroke-width="2"/>
  
  <!-- Browser Top Bar -->
  <rect x="20" y="20" width="560" height="40" rx="8" fill="#F1F5F9"/>
  <circle cx="45" cy="40" r="6" fill="#EF4444"/>
  <circle cx="65" cy="40" r="6" fill="#F59E0B"/>
  <circle cx="85" cy="40" r="6" fill="#10B981"/>
  
  <!-- Dashboard Content -->
  <rect x="40" y="80" width="520" height="30" rx="4" fill="#3B82F6"/>
  <text x="300" y="100" text-anchor="middle" fill="white" font-family="Inter, sans-serif" font-size="14" font-weight="600">Tulkiflow Dashboard</text>
  
  <!-- Metrics Cards -->
  <rect x="40" y="130" width="150" height="80" rx="6" fill="white" stroke="#E2E8F0"/>
  <rect x="45" y="140" width="20" height="20" rx="3" fill="#10B981"/>
  <text x="70" y="152" fill="#64748B" font-family="Inter, sans-serif" font-size="10">Revenue</text>
  <text x="45" y="175" fill="#1E293B" font-family="Inter, sans-serif" font-size="18" font-weight="600">₽45,680</text>
  <text x="45" y="195" fill="#10B981" font-family="Inter, sans-serif" font-size="12">+12.5%</text>
  
  <rect x="210" y="130" width="150" height="80" rx="6" fill="white" stroke="#E2E8F0"/>
  <rect x="215" y="140" width="20" height="20" rx="3" fill="#3B82F6"/>
  <text x="240" y="152" fill="#64748B" font-family="Inter, sans-serif" font-size="10">Bookings</text>
  <text x="215" y="175" fill="#1E293B" font-family="Inter, sans-serif" font-size="18" font-weight="600">127</text>
  <text x="215" y="195" fill="#3B82F6" font-family="Inter, sans-serif" font-size="12">+8.3%</text>
  
  <rect x="380" y="130" width="150" height="80" rx="6" fill="white" stroke="#E2E8F0"/>
  <rect x="385" y="140" width="20" height="20" rx="3" fill="#F59E0B"/>
  <text x="410" y="152" fill="#64748B" font-family="Inter, sans-serif" font-size="10">Occupancy</text>
  <text x="385" y="175" fill="#1E293B" font-family="Inter, sans-serif" font-size="18" font-weight="600">89%</text>
  <text x="385" y="195" fill="#F59E0B" font-family="Inter, sans-serif" font-size="12">+5.1%</text>
  
  <!-- Chart Area -->
  <rect x="40" y="230" width="320" height="120" rx="6" fill="white" stroke="#E2E8F0"/>
  <text x="200" y="250" text-anchor="middle" fill="#64748B" font-family="Inter, sans-serif" font-size="12">Weekly Performance</text>
  
  <!-- Chart Lines -->
  <polyline points="60,320 100,300 140,280 180,290 220,260 260,250 300,240 340,230" 
            stroke="#3B82F6" stroke-width="3" fill="none"/>
  <polyline points="60,330 100,310 140,300 180,310 220,290 260,280 300,270 340,260" 
            stroke="#10B981" stroke-width="2" fill="none" stroke-dasharray="4,2"/>
  
  <!-- Recent Activity -->
  <rect x="380" y="230" width="150" height="120" rx="6" fill="white" stroke="#E2E8F0"/>
  <text x="455" y="250" text-anchor="middle" fill="#64748B" font-family="Inter, sans-serif" font-size="12">Recent Activity</text>
  
  <!-- Activity Items -->
  <circle cx="395" cy="270" r="4" fill="#10B981"/>
  <text x="405" y="275" fill="#1E293B" font-family="Inter, sans-serif" font-size="10">New booking</text>
  
  <circle cx="395" cy="290" r="4" fill="#3B82F6"/>
  <text x="405" y="295" fill="#1E293B" font-family="Inter, sans-serif" font-size="10">Payment received</text>
  
  <circle cx="395" cy="310" r="4" fill="#F59E0B"/>
  <text x="405" y="315" fill="#1E293B" font-family="Inter, sans-serif" font-size="10">Cleaning scheduled</text>
  
  <circle cx="395" cy="330" r="4" fill="#EF4444"/>
  <text x="405" y="335" fill="#1E293B" font-family="Inter, sans-serif" font-size="10">Maintenance alert</text>
  
  <!-- Decorative Elements -->
  <circle cx="550" cy="100" r="20" fill="#3B82F6" opacity="0.1"/>
  <circle cx="50" cy="350" r="15" fill="#10B981" opacity="0.1"/>
</svg>